<?xml version="1.0" encoding="UTF-8" standalone="no"?>
<svg
        xmlns="http://www.w3.org/2000/svg"
        width="1700"
        height="350"
        viewBox="0 0 1700 350.00003"
        version="1.1"
        id="svg8">

    <g id="g64" style="fill-opacity:1;"
       transform="translate(482.8543,80.65538)">
        <g id="g1154"
           transform="translate(238.5551,-606.33093)">

          <path id="M"
                    d="m -459.9218,749.57052 -22.069,49.47134 q -5.7012,12.50577 -9.1955,16.91957 -3.4942,4.22989 -7.7241,4.22989 -4.046,0 -7.1724,-3.49425 -2.023,-2.20692 -9.3793,-16.18394 -7.1725,-13.97704 -11.9541,-24.82762 l -24.2759,-54.62078 q -4.9655,-11.4023 -10.4828,-11.4023 -5.885,0 -6.4368,9.74712 -1.2873,21.70119 -1.2873,40.09201 0,19.12648 1.8391,25.9311 1.2873,4.04597 3.3103,5.88505 2.2069,1.83907 11.5863,6.62071 6.0689,3.12644 6.0689,10.85058 0,20.59773 -52.7817,20.59773 -44.5058,0 -44.5058,-20.046 0,-5.14943 2.207,-7.35635 2.3907,-2.3908 11.9539,-6.98849 6.069,-2.75863 8.092,-7.54025 2.2069,-4.78161 3.6781,-18.57475 1.6553,-14.71265 3.1265,-48.18397 1.4713,-33.65523 1.4713,-57.5633 0,-29.97707 -4.5978,-40.64375 -1.6551,-3.67817 -3.862,-5.51724 -2.023,-1.8391 -7.9081,-4.78162 -13.0574,-6.25289 -13.0574,-16.18394 0,-6.43679 4.7816,-11.77014 4.9655,-5.33332 13.0575,-7.54024 8.0919,-2.39081 21.5172,-4.04598 13.6093,-1.83907 22.9886,-1.83907 23.5403,0 33.2874,3.86206 4.7816,1.8391 7.5402,4.96554 2.7587,3.12643 7.9081,12.87358 l 38.2529,70.43688 q 6.2529,11.58622 8.6437,14.16095 2.3908,2.5747 6.6207,2.5747 3.6782,0 6.4368,-2.75862 2.9425,-2.75862 6.8046,-10.29886 l 25.9311,-50.57479 q 4.7816,-9.74715 6.2529,-12.68967 9.0115,-18.39083 17.8391,-24.4598 11.2184,-7.90808 40.8276,-7.90808 52.0461,0 52.0461,23.72418 0,5.33335 -2.023,8.6437 -2.023,3.12644 -8.2759,7.72414 -8.4598,6.43679 -10.6667,18.57474 -4.2299,25.37936 -4.2299,61.7932 0,46.89663 4.4138,82.20702 1.1035,8.64368 3.3104,11.77015 2.3908,3.12642 11.954,9.3793 6.6207,4.4138 6.6207,11.77014 0,12.87359 -17.1034,18.20693 -8.8276,2.94252 -18.5748,3.86207 -9.7471,0.91955 -29.977,0.91955 -31.0805,0 -46.3449,-4.4138 -16.9196,-4.96553 -16.9196,-16.91957 0,-4.4138 2.2069,-7.17242 2.2069,-2.94255 11.4023,-10.48278 4.7816,-3.86209 6.4368,-14.89657 1.8391,-11.03449 1.8391,-37.51729 0,-14.71268 -1.4713,-19.31038 -1.2873,-4.59772 -5.7011,-4.59772 -5.1495,0 -9.9311,7.17243 -4.7816,6.98852 -14.3448,28.13797 z"/>

          <path id="i"
                    d="m -223.9416,676.49825 v 93.81336 q 0,11.14134 1.9376,16.30835 2.0991,5.16699 8.2349,9.52666 5.0055,3.55229 6.6202,6.1358 1.7762,2.42203 1.7762,6.29728 0,20.82947 -52.8003,20.82947 -28.4185,0 -45.0498,-4.52112 -5.6514,-1.61468 -9.2037,-5.65141 -3.3909,-4.03672 -3.3909,-9.20372 0,-4.35964 1.7762,-6.78169 1.7761,-2.42203 9.0423,-7.7505 5.0055,-3.71378 7.1046,-12.11015 2.0991,-8.39637 2.0991,-25.02766 0,-5.32847 -0.8074,-19.86066 -0.6458,-14.69365 -0.9688,-17.11568 -0.9688,-6.62022 -9.0422,-10.17253 -10.0111,-4.35966 -10.0111,-12.91751 0,-10.17253 13.079,-15.17805 18.0845,-6.94317 38.7525,-11.78723 20.668,-4.84406 31.9708,-4.84406 8.8808,0 8.8808,10.01105 z m -31.9709,-70.72331 q 14.0478,0 22.2827,5.32847 8.235,5.167 8.235,14.04778 0,12.4331 -12.4331,19.69919 -19.6992,11.46429 -47.6333,11.46429 -11.7872,0 -18.7304,-4.52112 -9.3652,-5.81288 -9.3652,-16.14689 0,-13.88631 19.8607,-21.79828 20.1835,-8.07344 37.7836,-8.07344 z" />

          <path id="d"
                    d="m -6.766101,618.69245 v 147.42097 q 0,12.59456 0.9688,16.14688 1.1303,3.55231 5.97430004,6.94315 5.81289996,4.03673 7.75049996,7.10463 2.0991,3.0679 2.0991,7.42756 0,12.9175 -25.9965,19.69919 -23.4129,5.97434 -46.8259,5.97434 -5.167,0 -6.7817,-1.61468 -1.4532,-1.45322 -1.9376,-7.2661 -0.8074,-8.2349 -5.8129,-8.2349 -2.745,0 -8.5578,4.84406 -16.469899,13.40191 -36.653399,13.40191 -25.0277,0 -45.0498,-18.5689 -11.7873,-11.14136 -19.0533,-25.67354 -9.6882,-18.89185 -9.6882,-38.26811 0,-22.76708 12.5946,-43.91949 11.6258,-19.53773 31.6479,-30.03319 16.7927,-8.71931 33.1011,-8.71931 18.7303,0 33.585499,8.39637 2.422,1.29176 3.8752,1.29176 5.167,0 5.167,-13.88632 0,-5.97434 -2.9064,-9.04224 -2.745,-3.22938 -10.0111,-5.48995 -10.1725,-3.22938 -10.1725,-11.30282 0,-11.78721 23.413,-18.40742 41.336,-11.4643 55.3837,-11.4643 13.8864,0 13.8864,13.24045 z m -87.6776,81.21879 q -10.495399,0 -16.631299,11.14133 -8.2349,14.85513 -8.2349,39.07544 0,21.95976 7.912,33.10109 5.6514,8.07344 15.339499,8.07344 10.4955,0 15.1781,-12.11014 4.8441,-12.27163 4.8441,-39.39838 0,-24.8662 -5.6514,-33.10109 -4.3597,-6.45876 -12.7561,-6.78169 z"/>

          <path id="i"
                    d="m 109.3299,676.49825 v 93.81336 q 0,11.14134 1.9376,16.30835 2.0991,5.16699 8.2349,9.52666 5.0056,3.55229 6.6203,6.1358 1.7761,2.42203 1.7761,6.29728 0,20.82947 -52.800301,20.82947 -28.4185,0 -45.0498,-4.52112 -5.6514,-1.61468 -9.2037,-5.65141 -3.3908,-4.03672 -3.3908,-9.20372 0,-4.35964 1.7761,-6.78169 1.7762,-2.42203 9.0423,-7.7505 5.0055,-3.71378 7.1046,-12.11015 2.0991,-8.39637 2.0991,-25.02766 0,-5.32847 -0.8073,-19.86066 -0.6459,-14.69365 -0.9689,-17.11568 -0.9688,-6.62022 -9.0422,-10.17253 -10.0111,-4.35966 -10.0111,-12.91751 0,-10.17253 13.079,-15.17805 18.0845,-6.94317 38.7525,-11.78723 20.668,-4.84406 31.970801,-4.84406 8.8808,0 8.8808,10.01105 z M 77.359099,605.77494 q 14.0478,0 22.2827,5.32847 8.234901,5.167 8.234901,14.04778 0,12.4331 -12.433101,19.69919 -19.6992,11.46429 -47.6333,11.46429 -11.7872,0 -18.7304,-4.52112 -9.3652,-5.81288 -9.3652,-16.14689 0,-13.88631 19.8607,-21.79828 20.1836,-8.07344 37.7837,-8.07344 z"/>

          <path id="B"
                    d="m 235.8517,826.0392 -24.1741,0.18033 q -25.437,0.36081 -37.1632,1.08243 -10.4635,0.90202 -14.9736,0.90202 -11.0046,0 -17.4991,-5.59253 -6.3142,-5.59251 -6.3142,-13.34989 0,-5.0513 2.3453,-7.93775 2.3452,-2.88645 11.3654,-9.0202 5.2317,-3.60806 7.2162,-11.18504 1.9844,-7.75735 4.3297,-33.01389 3.4276,-39.32803 3.4276,-96.87686 0,-21.10724 -2.8864,-27.9626 -2.7061,-7.03574 -12.9891,-11.54583 -11.9067,-5.05132 -11.9067,-14.79313 0,-7.93777 7.0358,-12.98907 7.2162,-5.0513 18.4012,-5.0513 6.1337,0 15.6951,0.54121 15.8756,0.72162 34.2768,0.72162 13.5302,0 53.2191,-1.08242 12.4479,-0.36083 22.5505,-0.36083 23.9937,0 38.6064,3.96889 14.7931,3.78849 25.6173,12.98907 17.6796,14.97352 17.6796,40.04967 0,12.44786 -5.2317,24.35452 -5.2317,11.72624 -14.0715,18.76199 -6.3141,5.0513 -6.3141,9.2006 0,4.51009 7.5769,7.57695 14.7931,5.95333 26.8802,20.02482 12.4479,14.61272 12.4479,36.62197 0,25.97817 -18.9424,47.44623 -25.0762,28.32341 -74.146,28.32341 -6.675,0 -32.8335,-0.90203 -23.8133,-0.90203 -29.2254,-1.08242 z m 12.4478,-195.73817 v 37.1632 q 0,8.83978 2.1649,12.44786 2.3452,3.60808 7.9378,3.60808 13.3498,0 19.664,-8.11816 6.3141,-8.29858 6.3141,-25.79776 0,-16.95797 -6.4946,-26.15855 -6.4945,-9.381 -18.4011,-9.381 -6.3142,0 -8.8398,3.60806 -2.3453,3.42769 -2.3453,12.62827 z m 0,103.91262 v 17.13837 q 0,23.6329 3.4277,31.39026 3.4277,7.75735 13.8911,7.75735 27.4214,0 27.4214,-32.11187 0,-40.04964 -30.6687,-40.04964 -7.9377,0 -11.0046,3.42767 -3.0669,3.42767 -3.0669,12.44786 z"/>

          <path id="o"
                    d="m 527.0036,704.15487 q -5.6355,-4.96158 -13.3395,-4.30161 -7.4472,0.6606 -14.3945,6.72277 -7.7195,6.7358 -18.2818,20.89188 -10.3057,14.15673 -16.6274,26.63351 -6.5793,12.70117 2.3865,20.59472 11.3994,10.03606 25.9378,-2.64972 10.807,-9.43001 21.6271,-24.03571 10.9485,-14.49296 15.4696,-25.62312 4.522,-11.35504 -2.7778,-18.23272 z m -51.6489,-45.13753 q 28.1561,-8.61079 53.8584,-0.48776 18.4315,5.80399 32.7919,19.75115 14.903,14.62238 20.7376,33.70066 10.2107,33.38698 -13.2547,66.1369 -22.4101,31.24942 -60.1049,42.77757 -36.7718,11.24577 -65.9419,-2.71487 -28.3666,-13.53338 -38.342,-46.15103 -11.1045,-36.31025 8.9162,-67.6702 20.8753,-32.96735 61.3394,-45.34242 z"/>

          <path id="s"
                    d="m 664.85,665.35692 q 8.0734,0 26.3194,3.55231 3.7138,0.64587 6.1358,0.64587 2.745,0 10.657,-2.90644 3.7137,-1.45322 6.2972,-1.45322 7.4276,0 15.0166,9.52666 6.1359,7.58904 10.0111,16.63128 3.8753,9.04227 3.8753,15.66248 0,6.45874 -4.5212,10.81841 -4.5211,4.19818 -11.3028,4.19818 -5.6514,0 -10.1725,-2.74496 -4.3597,-2.74497 -14.2093,-12.11017 -10.334,-10.01105 -17.1157,-10.01105 -4.5211,0 -7.9119,3.39084 -3.2294,3.22938 -3.2294,7.7505 0,7.91198 15.1781,14.85513 27.2882,12.27162 41.8204,26.80381 12.2716,12.27162 12.2716,30.03318 0,22.44417 -19.6992,37.46076 -16.9542,13.07897 -41.4975,13.07897 -6.2973,0 -22.9285,-2.09909 -15.6625,-1.77616 -17.6001,-1.77616 -2.0991,0 -4.8441,0.48441 -4.6826,0.64587 -6.7817,0.64587 -7.589,0 -11.9487,-3.87525 -6.6202,-5.97434 -12.2716,-18.73038 -5.6514,-12.91749 -5.6514,-22.12121 0,-14.85513 11.6257,-14.85513 4.5212,0 8.235,3.0679 3.8752,2.90644 15.9854,15.82393 6.6202,7.10463 10.9798,9.8496 4.3597,2.58351 9.3652,2.58351 5.3285,0 8.5579,-2.74497 3.2293,-2.90644 3.2293,-7.58904 0,-7.26609 -12.4331,-13.24043 -25.9964,-12.75604 -37.6222,-26.31941 -11.4642,-13.56338 -11.4642,-31.32493 0,-19.21479 11.7872,-33.1011 16.7927,-19.86066 45.8571,-19.86066 z"/>

          <path id="s"
                    d="m 822.4434,665.35692 q 8.0735,0 26.3194,3.55231 3.7138,0.64587 6.1359,0.64587 2.7449,0 10.6569,-2.90644 3.7138,-1.45322 6.2973,-1.45322 7.4275,0 15.0166,9.52666 6.1358,7.58904 10.011,16.63128 3.8753,9.04227 3.8753,15.66248 0,6.45874 -4.5211,10.81841 -4.5212,4.19818 -11.3029,4.19818 -5.6514,0 -10.1725,-2.74496 -4.3596,-2.74497 -14.2092,-12.11017 -10.334,-10.01105 -17.1157,-10.01105 -4.5211,0 -7.912,3.39084 -3.2294,3.22938 -3.2294,7.7505 0,7.91198 15.1781,14.85513 27.2882,12.27162 41.8204,26.80381 12.2716,12.27162 12.2716,30.03318 0,22.44417 -19.6992,37.46076 -16.9542,13.07897 -41.4974,13.07897 -6.2973,0 -22.9286,-2.09909 -15.6625,-1.77616 -17.6001,-1.77616 -2.0991,0 -4.844,0.48441 -4.6826,0.64587 -6.7817,0.64587 -7.5891,0 -11.9487,-3.87525 -6.6202,-5.97434 -12.2716,-18.73038 -5.6515,-12.91749 -5.6515,-22.12121 0,-14.85513 11.6258,-14.85513 4.5211,0 8.2349,3.0679 3.8752,2.90644 15.9854,15.82393 6.6202,7.10463 10.9799,9.8496 4.3596,2.58351 9.3652,2.58351 5.3284,0 8.5578,-2.74497 3.2294,-2.90644 3.2294,-7.58904 0,-7.26609 -12.4331,-13.24043 -25.9965,-12.75604 -37.6222,-26.31941 -11.4643,-13.56338 -11.4643,-31.32493 0,-19.21479 11.7872,-33.1011 16.7928,-19.86066 45.8571,-19.86066 z"/>
        </g>
    </g>
</svg>
