<?xml version="1.0" encoding="UTF-8" standalone="no"?>
<svg xmlns="http://www.w3.org/2000/svg"
     viewBox="0 0 1700 350"
     width="1700"
     height="350">
    <filter id="gaussian-blur">
        <feDropShadow dx="-5" dy="5" stdDeviation="1"
                      flood-color="black" flood-opacity="0.5"/>
    </filter>
    <g>
        <path id="MidiBoss Letters"
              d="m261.49 223.9-22.07 49.47q-5.7 12.5-9.2 16.92-3.5 4.23-7.72 4.23-4.05 0-7.17-3.5-2.03-2.2-9.38-16.18-7.18-13.98-11.96-24.83l-24.27-54.62q-4.97-11.4-10.49-11.4-5.88 0-6.43 9.74-1.29 21.7-1.29 40.1 0 19.12 1.84 25.93 1.29 4.04 3.31 5.88 2.2 1.84 11.59 6.62 6.06 3.13 6.06 10.85 0 20.6-52.78 20.6-44.5 0-44.5-20.04 0-5.15 2.2-7.36 2.4-2.4 11.96-6.99 6.07-2.76 8.09-7.54 2.2-4.78 3.68-18.57 1.65-14.72 3.13-48.19 1.47-33.65 1.47-57.56 0-29.98-4.6-40.65-1.66-3.67-3.86-5.51-2.03-1.84-7.91-4.78-13.06-6.26-13.06-16.19 0-6.44 4.78-11.77 4.97-5.33 13.06-7.54 8.1-2.39 21.52-4.04 13.6-1.84 22.99-1.84 23.54 0 33.28 3.86 4.78 1.84 7.54 4.96 2.76 3.13 7.91 12.88l38.25 70.43q6.26 11.59 8.65 14.17 2.39 2.57 6.62 2.57 3.68 0 6.44-2.76 2.94-2.76 6.8-10.3l25.93-50.57q4.78-9.75 6.25-12.7Q297.17 59.3 306 53.24q11.22-7.91 40.83-7.91 52.05 0 52.05 23.72 0 5.34-2.03 8.65-2.02 3.12-8.27 7.72-8.46 6.44-10.67 18.58-4.23 25.38-4.23 61.79 0 46.9 4.42 82.2 1.1 8.65 3.3 11.78 2.4 3.12 11.96 9.38 6.62 4.41 6.62 11.77 0 12.87-17.1 18.2-8.83 2.95-18.58 3.87-9.74.92-29.97.92-31.09 0-46.35-4.42-16.92-4.96-16.92-16.92 0-4.41 2.2-7.17 2.21-2.94 11.41-10.48 4.78-3.87 6.44-14.9 1.84-11.03 1.84-37.52 0-14.71-1.48-19.3-1.28-4.6-5.7-4.6-5.15 0-9.93 7.17-4.78 6.99-14.34 28.13zm235.98-73.08v93.82q0 11.14 1.94 16.3 2.1 5.17 8.23 9.53 5 3.55 6.62 6.14 1.78 2.42 1.78 6.3 0 20.82-52.8 20.82-28.42 0-45.05-4.52-5.65-1.61-9.2-5.65-3.4-4.04-3.4-9.2 0-4.36 1.78-6.78 1.77-2.43 9.04-7.75 5-3.72 7.1-12.11 2.1-8.4 2.1-25.03 0-5.33-.8-19.86-.65-14.7-.97-17.12-.97-6.62-9.04-10.17-10.02-4.36-10.02-12.92 0-10.17 13.08-15.18 18.09-6.94 38.76-11.78 20.66-4.85 31.97-4.85 8.88 0 8.88 10.01zM465.5 80.1q14.04 0 22.28 5.33 8.23 5.16 8.23 14.05 0 12.43-12.43 19.7-19.7 11.46-47.63 11.46-11.79 0-18.73-4.52-9.37-5.81-9.37-16.15 0-13.89 19.86-21.8 20.19-8.07 37.79-8.07zm249.14 12.92v147.42q0 12.6.97 16.14 1.13 3.56 5.98 6.95 5.8 4.03 7.75 7.1 2.1 3.07 2.1 7.43 0 12.92-26 19.7-23.41 5.97-46.83 5.97-5.16 0-6.78-1.61-1.45-1.45-1.94-7.27-.8-8.23-5.8-8.23-2.75 0-8.57 4.84-16.47 13.4-36.65 13.4-25.03 0-45.05-18.56-11.79-11.15-19.05-25.68-9.7-18.89-9.7-38.27 0-22.76 12.6-43.92 11.63-19.53 31.65-30.03 16.8-8.72 33.1-8.72 18.73 0 33.59 8.4 2.42 1.29 3.87 1.29 5.17 0 5.17-13.89 0-5.97-2.9-9.04-2.75-3.23-10.02-5.49-10.17-3.23-10.17-11.3 0-11.79 23.41-18.4 41.34-11.47 55.39-11.47 13.88 0 13.88 13.24zm-87.67 81.22q-10.5 0-16.64 11.14-8.23 14.85-8.23 39.07 0 21.96 7.91 33.1 5.65 8.08 15.34 8.08 10.5 0 15.18-12.11 4.84-12.27 4.84-39.4 0-24.87-5.65-33.1-4.36-6.46-12.75-6.78zm203.77-23.42v93.82q0 11.14 1.94 16.3 2.1 5.17 8.23 9.53 5 3.55 6.62 6.14 1.78 2.42 1.78 6.3 0 20.82-52.8 20.82-28.42 0-45.05-4.52-5.65-1.61-9.2-5.65-3.4-4.04-3.4-9.2 0-4.36 1.78-6.78 1.78-2.43 9.04-7.75 5-3.72 7.1-12.11 2.1-8.4 2.1-25.03 0-5.33-.8-19.86-.65-14.7-.97-17.12-.97-6.62-9.04-10.17-10.01-4.36-10.01-12.92 0-10.17 13.08-15.18 18.08-6.94 38.75-11.78 20.67-4.85 31.97-4.85 8.88 0 8.88 10.01zM798.77 80.1q14.05 0 22.28 5.33 8.24 5.16 8.24 14.05 0 12.43-12.44 19.7-19.7 11.46-47.63 11.46-11.79 0-18.73-4.52-9.37-5.81-9.37-16.15 0-13.89 19.86-21.8 20.19-8.07 37.79-8.07zm158.49 220.26-24.17.18q-25.44.36-37.17 1.09-10.46.9-14.97.9-11 0-17.5-5.6-6.31-5.59-6.31-13.34 0-5.06 2.34-7.94 2.35-2.89 11.37-9.02 5.23-3.61 7.21-11.19 1.99-7.75 4.33-33.01 3.43-39.33 3.43-96.88 0-21.1-2.89-27.96-2.7-7.04-12.98-11.55-11.91-5.05-11.91-14.79 0-7.94 7.03-12.99 7.22-5.05 18.4-5.05 6.14 0 15.7.54 15.88.72 34.28.72 13.53 0 53.22-1.08 12.44-.36 22.55-.36 24 0 38.6 3.97 14.8 3.79 25.62 12.99 17.68 14.97 17.68 40.05 0 12.45-5.23 24.35-5.23 11.73-14.07 18.76-6.32 5.06-6.32 9.2 0 4.51 7.58 7.58 14.8 5.95 26.88 20.03 12.45 14.6 12.45 36.62 0 25.98-18.94 47.44-25.08 28.33-74.15 28.33-6.68 0-32.83-.9-23.82-.9-29.23-1.09zm12.45-195.73v37.16q0 8.84 2.16 12.45 2.35 3.6 7.94 3.6 13.35 0 19.67-8.11 6.31-8.3 6.31-25.8 0-16.96-6.5-26.16-6.49-9.38-18.4-9.38-6.31 0-8.84 3.6-2.34 3.43-2.34 12.64zm0 103.9v17.15q0 23.63 3.43 31.39 3.42 7.75 13.89 7.75 27.42 0 27.42-32.1 0-40.06-30.67-40.06-7.94 0-11 3.43-3.07 3.43-3.07 12.45zm278.7-30.05q-5.63-4.96-13.34-4.3-7.44.66-14.4 6.72-7.71 6.74-18.27 20.9-10.3 14.15-16.63 26.63-6.58 12.7 2.39 20.6 11.4 10.03 25.93-2.66 10.81-9.43 21.63-24.03 10.95-14.5 15.47-25.63 4.52-11.35-2.78-18.23zm-51.65-45.14q28.16-8.6 53.86-.49 18.43 5.8 32.8 19.76 14.9 14.62 20.73 33.7 10.21 33.38-13.25 66.13-22.41 31.25-60.1 42.78-36.78 11.25-65.95-2.71-28.37-13.54-38.34-46.16-11.1-36.3 8.91-67.67 20.88-32.96 61.34-45.34zm189.5 6.34q8.07 0 26.32 3.55 3.71.65 6.13.65 2.75 0 10.66-2.9 3.72-1.46 6.3-1.46 7.43 0 15.02 9.53 6.13 7.59 10 16.63 3.88 9.04 3.88 15.66 0 6.46-4.52 10.82-4.52 4.2-11.3 4.2-5.65 0-10.17-2.75-4.36-2.74-14.21-12.1-10.34-10.02-17.12-10.02-4.52 0-7.91 3.4-3.23 3.22-3.23 7.74 0 7.91 15.18 14.86 27.29 12.27 41.82 26.8 12.27 12.27 12.27 30.03 0 22.45-19.7 37.46-16.95 13.08-41.5 13.08-6.3 0-22.93-2.1-15.66-1.77-17.6-1.77-2.1 0-4.84.48-4.68.65-6.78.65-7.6 0-11.95-3.88-6.62-5.97-12.27-18.73-5.65-12.91-5.65-22.12 0-14.85 11.62-14.85 4.52 0 8.24 3.06 3.87 2.91 15.98 15.83 6.62 7.1 10.98 9.85 4.36 2.58 9.37 2.58 5.33 0 8.56-2.74 3.22-2.91 3.22-7.6 0-7.26-12.43-13.23-26-12.76-37.62-26.32-11.46-13.57-11.46-31.33 0-19.21 11.78-33.1 16.8-19.86 45.86-19.86zm157.59 0q8.08 0 26.32 3.55 3.72.65 6.14.65 2.74 0 10.66-2.9 3.7-1.46 6.3-1.46 7.42 0 15 9.53 6.14 7.59 10.02 16.63t3.88 15.66q0 6.46-4.53 10.82-4.52 4.2-11.3 4.2-5.65 0-10.17-2.75-4.36-2.74-14.21-12.1-10.33-10.02-17.12-10.02-4.52 0-7.9 3.4-3.24 3.22-3.24 7.74 0 7.91 15.18 14.86 27.29 12.27 41.82 26.8 12.27 12.27 12.27 30.03 0 22.45-19.7 37.46-16.95 13.08-41.5 13.08-6.3 0-22.92-2.1-15.67-1.77-17.6-1.77-2.1 0-4.85.48-4.68.65-6.78.65-7.59 0-11.95-3.88-6.62-5.97-12.27-18.73-5.65-12.91-5.65-22.12 0-14.85 11.63-14.85 4.52 0 8.23 3.06 3.88 2.91 15.99 15.83 6.62 7.1 10.98 9.85 4.36 2.58 9.36 2.58 5.33 0 8.56-2.74 3.23-2.91 3.23-7.6 0-7.26-12.43-13.23-26-12.76-37.63-26.32-11.46-13.57-11.46-31.33 0-19.21 11.79-33.1 16.79-19.86 45.85-19.86z"/>
    </g>
</svg>