<svg xmlns="http://www.w3.org/2000/svg"
 width="100" height="100" viewBox="0 0 100 100">
    <filter id="gaussian-blur">
    <feDropShadow dx="-1.1" dy="1" stdDeviation=".4"
  flood-color="black" flood-opacity="0.5"/>
    </filter>
    <g filter="url(#gaussian-blur)">
      <path
        fill="#5ec3dc"
d="m 14.058507,2.74466 q 3.747392,0 6.573293,1.94536 2.027278,1.39248 3.255931,3.62453 1.269608,2.33444 1.269608,4.87366 0,4.44363 -4.075033,7.55621 -3.890734,2.96925 -8.907733,2.96925 -4.8941341,0 -7.9248112,-2.78495 -2.948767,-2.70304 -2.948767,-7.04428 0,-4.8327 3.6040485,-7.90433 3.7678689,-3.23545 9.1534637,-3.23545 z m -1.638203,4.73031 q -0.901013,0 -1.453906,0.67576 -0.532417,0.65528 -0.532417,1.76107 0,1.22865 0.450506,3.35832 0.470984,2.10918 1.105788,3.74739 0.634804,1.67916 2.068232,1.67916 1.822502,0 1.822502,-2.31397 0,-1.72011 -0.470983,-3.91121 -0.450506,-2.19109 -1.105788,-3.56309 -0.675759,-1.39247 -1.883934,-1.43343 z"
      

      ></path>
    </g>
  </svg>