<svg xmlns="http://www.w3.org/2000/svg" xmlns:xlink="http://www.w3.org/1999/xlink" width="235.67" height="56.916"><filter id="b"/><defs><linearGradient xlink:href="#a" id="g" gradientUnits="userSpaceOnUse" x1="228.253" y1="398.839" x2="244.098" y2="876.996"/><linearGradient id="a"><stop offset="0" style="stop-color:#3ff;stop-opacity:1"/><stop offset="1" style="stop-color:#5ec2dc;stop-opacity:1"/></linearGradient><linearGradient gradientUnits="userSpaceOnUse" y2="876.996" x2="244.098" y1="398.839" x1="228.253" id="d" xlink:href="#a"/><linearGradient xlink:href="#a" id="e" gradientUnits="userSpaceOnUse" x1="228.253" y1="398.839" x2="244.098" y2="876.996"/><linearGradient xlink:href="#a" id="f" gradientUnits="userSpaceOnUse" x1="228.253" y1="398.839" x2="244.098" y2="876.996"/><linearGradient gradientTransform="matrix(.03397 0 0 .03397 118.264 198.523)" gradientUnits="userSpaceOnUse" y2="-811.513" x2="-2589.214" y1="-1822.343" x1="-2207.691" id="c" xlink:href="#a"/><linearGradient xlink:href="#a" id="h" gradientUnits="userSpaceOnUse" x1="228.253" y1="398.839" x2="244.098" y2="876.996"/><linearGradient xlink:href="#a" id="i" gradientUnits="userSpaceOnUse" x1="228.253" y1="398.839" x2="244.098" y2="876.996"/><linearGradient xlink:href="#a" id="j" gradientUnits="userSpaceOnUse" x1="228.253" y1="398.839" x2="244.098" y2="876.996"/><linearGradient xlink:href="#a" id="k" gradientUnits="userSpaceOnUse" x1="228.253" y1="398.839" x2="244.098" y2="876.996"/><linearGradient xlink:href="#a" id="l" gradientUnits="userSpaceOnUse" x1="228.253" y1="398.839" x2="244.098" y2="876.996"/></defs><g transform="translate(3.114 -126.067)" style="display:inline;filter:url(#b)"><path d="M41.978 159.022q-1.25-1.1-2.96-.954-1.654.146-3.196 1.492-1.713 1.495-4.058 4.637-2.287 3.142-3.69 5.911-1.46 2.82.53 4.572 2.53 2.227 5.757-.588 2.398-2.094 4.8-5.335 2.43-3.217 3.434-5.688 1.003-2.52-.617-4.047zm-11.464-10.018q6.25-1.911 11.954-.108 4.091 1.288 7.279 4.383 3.308 3.246 4.603 7.48 2.266 7.411-2.942 14.68-4.974 6.936-13.341 9.495-8.162 2.496-14.636-.603-6.297-3.003-8.51-10.243-2.465-8.06 1.978-15.02 4.634-7.317 13.615-10.064z" style="font-style:normal;font-variant:normal;font-weight:400;font-stretch:normal;font-size:173.33332825px;line-height:1.25;font-family:'Cooper Black';-inkscape-font-specification:'Cooper Black, Normal';font-variant-ligatures:normal;font-variant-caps:normal;font-variant-numeric:normal;font-feature-settings:normal;text-align:start;letter-spacing:0;word-spacing:0;writing-mode:lr-tb;text-anchor:start;display:inline;fill:url(#c);fill-opacity:1;stroke:none;stroke-width:.44572723" transform="matrix(1.28634 0 0 1.28634 -17.175 -60.338)"/><g transform="matrix(.10988 0 0 .10988 129.494 87.725)" style="fill:url(#d);fill-opacity:1;stroke:none"><path d="m-459.922 749.57-22.069 49.472q-5.701 12.506-9.195 16.92-3.495 4.23-7.724 4.23-4.046 0-7.173-3.495-2.023-2.207-9.38-16.184-7.172-13.977-11.953-24.827l-24.276-54.621q-4.966-11.403-10.483-11.403-5.885 0-6.437 9.748-1.287 21.7-1.287 40.092 0 19.126 1.84 25.93 1.286 4.047 3.31 5.886 2.206 1.839 11.586 6.62 6.069 3.127 6.069 10.851 0 20.598-52.782 20.598-44.506 0-44.506-20.046 0-5.15 2.207-7.357 2.39-2.39 11.954-6.988 6.069-2.759 8.092-7.54 2.207-4.782 3.678-18.575 1.655-14.713 3.127-48.184 1.47-33.655 1.47-57.563 0-29.977-4.597-40.644-1.655-3.678-3.862-5.517-2.023-1.84-7.908-4.782-13.057-6.253-13.057-16.184 0-6.437 4.781-11.77 4.966-5.333 13.058-7.54 8.092-2.391 21.517-4.046 13.61-1.84 22.989-1.84 23.54 0 33.287 3.863 4.782 1.839 7.54 4.965 2.759 3.127 7.908 12.874l38.253 70.437q6.253 11.586 8.644 14.16 2.39 2.575 6.62 2.575 3.679 0 6.437-2.758 2.943-2.759 6.805-10.3l25.931-50.574q4.782-9.747 6.253-12.69 9.011-18.39 17.839-24.46 11.218-7.907 40.828-7.907 52.046 0 52.046 23.724 0 5.333-2.023 8.643-2.023 3.127-8.276 7.725-8.46 6.436-10.667 18.574-4.23 25.38-4.23 61.793 0 46.897 4.414 82.208 1.104 8.643 3.31 11.77 2.391 3.126 11.954 9.379 6.621 4.414 6.621 11.77 0 12.874-17.103 18.207-8.828 2.943-18.575 3.862-9.747.92-29.977.92-31.08 0-46.345-4.414-16.92-4.966-16.92-16.92 0-4.414 2.207-7.172 2.207-2.943 11.403-10.483 4.781-3.862 6.436-14.896 1.84-11.035 1.84-37.518 0-14.712-1.472-19.31-1.287-4.598-5.7-4.598-5.15 0-9.932 7.173-4.782 6.988-14.345 28.138z" style="font-style:normal;font-variant:normal;font-weight:400;font-stretch:normal;font-size:173.33332825px;line-height:1.25;font-family:'Cooper Black';-inkscape-font-specification:'Cooper Black, Normal';font-variant-ligatures:normal;font-variant-caps:normal;font-variant-numeric:normal;font-feature-settings:normal;text-align:start;letter-spacing:0;word-spacing:0;writing-mode:lr-tb;text-anchor:start;fill:url(#e);fill-opacity:1;stroke:none;stroke-width:2.17294765"/><path d="M-223.942 676.498v93.814q0 11.14 1.938 16.308 2.1 5.167 8.235 9.527 5.005 3.552 6.62 6.135 1.776 2.422 1.776 6.298 0 20.83-52.8 20.83-28.419 0-45.05-4.522-5.651-1.615-9.203-5.651-3.391-4.037-3.391-9.204 0-4.36 1.776-6.782 1.776-2.422 9.042-7.75 5.006-3.714 7.105-12.11 2.099-8.397 2.099-25.028 0-5.329-.808-19.86-.645-14.694-.968-17.116-.97-6.62-9.043-10.173-10.01-4.36-10.01-12.917 0-10.173 13.078-15.179 18.085-6.943 38.753-11.787 20.668-4.844 31.97-4.844 8.881 0 8.881 10.011zm-31.97-70.723q14.047 0 22.282 5.328 8.235 5.167 8.235 14.048 0 12.433-12.433 19.7-19.7 11.464-47.633 11.464-11.787 0-18.73-4.521-9.366-5.813-9.366-16.147 0-13.887 19.86-21.799 20.184-8.073 37.785-8.073z" style="font-style:normal;font-variant:normal;font-weight:400;font-stretch:normal;font-size:173.33332825px;line-height:1.25;font-family:'Cooper Black';-inkscape-font-specification:'Cooper Black, Normal';font-variant-ligatures:normal;font-variant-caps:normal;font-variant-numeric:normal;font-feature-settings:normal;text-align:start;letter-spacing:0;word-spacing:0;writing-mode:lr-tb;text-anchor:start;fill:url(#f);fill-opacity:1;stroke:none;stroke-width:1.90781558"/><path d="M-6.766 618.692v147.421q0 12.595.969 16.147 1.13 3.553 5.974 6.943 5.813 4.037 7.75 7.105 2.1 3.068 2.1 7.428 0 12.917-25.997 19.699-23.413 5.974-46.826 5.974-5.167 0-6.782-1.615-1.453-1.453-1.937-7.266-.808-8.235-5.813-8.235-2.745 0-8.558 4.845-16.47 13.401-36.653 13.401-25.028 0-45.05-18.568-11.787-11.142-19.053-25.674-9.689-18.892-9.689-38.268 0-22.767 12.595-43.92 11.626-19.537 31.648-30.033 16.793-8.72 33.101-8.72 18.73 0 33.586 8.397 2.422 1.292 3.875 1.292 5.167 0 5.167-13.886 0-5.975-2.907-9.043-2.745-3.229-10.01-5.49-10.173-3.229-10.173-11.302 0-11.787 23.413-18.408 41.336-11.464 55.383-11.464 13.887 0 13.887 13.24zm-87.678 81.22q-10.495 0-16.631 11.14-8.235 14.856-8.235 39.076 0 21.96 7.912 33.101 5.652 8.074 15.34 8.074 10.495 0 15.178-12.11 4.844-12.272 4.844-39.399 0-24.866-5.652-33.101-4.36-6.459-12.756-6.782z" style="font-style:normal;font-variant:normal;font-weight:400;font-stretch:normal;font-size:173.33332825px;line-height:1.25;font-family:'Cooper Black';-inkscape-font-specification:'Cooper Black, Normal';font-variant-ligatures:normal;font-variant-caps:normal;font-variant-numeric:normal;font-feature-settings:normal;text-align:start;letter-spacing:0;word-spacing:0;writing-mode:lr-tb;text-anchor:start;fill:url(#g);fill-opacity:1;stroke:none;stroke-width:1.90781558"/><path d="M109.33 676.498v93.814q0 11.14 1.937 16.308 2.1 5.167 8.235 9.527 5.006 3.552 6.62 6.135 1.777 2.422 1.777 6.298 0 20.83-52.8 20.83-28.419 0-45.05-4.522-5.652-1.615-9.204-5.651-3.39-4.037-3.39-9.204 0-4.36 1.775-6.782 1.776-2.422 9.043-7.75 5.005-3.714 7.104-12.11 2.1-8.397 2.1-25.028 0-5.329-.808-19.86-.646-14.694-.969-17.116-.969-6.62-9.042-10.173-10.011-4.36-10.011-12.917 0-10.173 13.079-15.179 18.084-6.943 38.752-11.787 20.668-4.844 31.971-4.844 8.88 0 8.88 10.011zm-31.97-70.723q14.047 0 22.282 5.328 8.235 5.167 8.235 14.048 0 12.433-12.433 19.7-19.7 11.464-47.634 11.464-11.787 0-18.73-4.521-9.365-5.813-9.365-16.147 0-13.887 19.86-21.799 20.184-8.073 37.784-8.073z" style="font-style:normal;font-variant:normal;font-weight:400;font-stretch:normal;font-size:173.33332825px;line-height:1.25;font-family:'Cooper Black';-inkscape-font-specification:'Cooper Black, Normal';font-variant-ligatures:normal;font-variant-caps:normal;font-variant-numeric:normal;font-feature-settings:normal;text-align:start;letter-spacing:0;word-spacing:0;writing-mode:lr-tb;text-anchor:start;fill:url(#h);fill-opacity:1;stroke:none;stroke-width:1.90781558"/><path d="m235.852 826.04-24.174.18q-25.437.36-37.164 1.082-10.463.902-14.973.902-11.005 0-17.5-5.593-6.314-5.592-6.314-13.35 0-5.05 2.346-7.937 2.345-2.887 11.365-9.02 5.232-3.608 7.216-11.185 1.985-7.758 4.33-33.014 3.428-39.328 3.428-96.877 0-21.107-2.887-27.963-2.706-7.036-12.989-11.546-11.907-5.05-11.907-14.793 0-7.938 7.036-12.989 7.216-5.051 18.401-5.051 6.134 0 15.696.541 15.875.722 34.276.722 13.53 0 53.22-1.083 12.447-.36 22.55-.36 23.994 0 38.606 3.968 14.793 3.789 25.618 12.99 17.68 14.973 17.68 40.05 0 12.447-5.232 24.354-5.232 11.726-14.072 18.762-6.314 5.05-6.314 9.2 0 4.51 7.577 7.577 14.793 5.953 26.88 20.025Q391 730.245 391 752.254q0 25.978-18.942 47.446-25.077 28.324-74.146 28.324-6.675 0-32.834-.902-23.813-.902-29.225-1.083zM248.299 630.3v37.163q0 8.84 2.165 12.448 2.346 3.608 7.938 3.608 13.35 0 19.664-8.118 6.314-8.299 6.314-25.798 0-16.958-6.494-26.158-6.495-9.381-18.401-9.381-6.315 0-8.84 3.608-2.346 3.427-2.346 12.628zm0 103.913v17.138q0 23.633 3.428 31.39 3.428 7.758 13.891 7.758 27.422 0 27.422-32.112 0-40.05-30.669-40.05-7.938 0-11.005 3.428-3.067 3.427-3.067 12.448z" style="font-style:normal;font-variant:normal;font-weight:400;font-stretch:normal;font-size:173.33332825px;line-height:1.25;font-family:'Cooper Black';-inkscape-font-specification:'Cooper Black, Normal';font-variant-ligatures:normal;font-variant-caps:normal;font-variant-numeric:normal;font-feature-settings:normal;text-align:start;letter-spacing:0;word-spacing:0;writing-mode:lr-tb;text-anchor:start;fill:url(#i);fill-opacity:1;stroke:none;stroke-width:2.13154078"/><path style="font-style:normal;font-variant:normal;font-weight:400;font-stretch:normal;font-size:173.33332825px;line-height:1.25;font-family:'Cooper Black';-inkscape-font-specification:'Cooper Black, Normal';font-variant-ligatures:normal;font-variant-caps:normal;font-variant-numeric:normal;font-feature-settings:normal;text-align:start;letter-spacing:0;word-spacing:0;writing-mode:lr-tb;text-anchor:start;display:inline;opacity:1;vector-effect:none;fill:url(#j);fill-opacity:1;stroke:none;stroke-width:1.90781558;stroke-linecap:butt;stroke-linejoin:miter;stroke-miterlimit:4;stroke-dasharray:none;stroke-dashoffset:0;stroke-opacity:1" d="M527.004 704.155q-5.636-4.962-13.34-4.302-7.447.66-14.394 6.723-7.72 6.736-18.282 20.892-10.306 14.157-16.628 26.633-6.579 12.702 2.387 20.595 11.4 10.036 25.938-2.65 10.807-9.43 21.627-24.035 10.948-14.493 15.47-25.623 4.521-11.355-2.778-18.233zm-51.65-45.138q28.157-8.61 53.86-.487 18.43 5.804 32.791 19.75 14.903 14.623 20.738 33.701 10.21 33.387-13.255 66.137-22.41 31.25-60.105 42.778-36.772 11.246-65.942-2.715-28.366-13.533-38.342-46.151-11.104-36.31 8.916-67.67 20.876-32.968 61.34-45.343z"/><path d="M664.85 665.357q8.073 0 26.32 3.552 3.713.646 6.135.646 2.745 0 10.657-2.906 3.714-1.454 6.297-1.454 7.428 0 15.017 9.527 6.136 7.59 10.011 16.631 3.875 9.043 3.875 15.663 0 6.459-4.52 10.818-4.522 4.198-11.304 4.198-5.651 0-10.172-2.745-4.36-2.744-14.21-12.11-10.333-10.01-17.115-10.01-4.521 0-7.912 3.39-3.23 3.23-3.23 7.75 0 7.913 15.179 14.856 27.288 12.271 41.82 26.804Q743.97 762.238 743.97 780q0 22.444-19.7 37.46-16.954 13.08-41.497 13.08-6.297 0-22.928-2.1-15.663-1.776-17.6-1.776-2.1 0-4.845.485-4.682.645-6.781.645-7.59 0-11.95-3.875-6.62-5.974-12.27-18.73-5.652-12.918-5.652-22.121 0-14.855 11.626-14.855 4.52 0 8.235 3.067 3.875 2.907 15.985 15.824 6.62 7.105 10.98 9.85 4.36 2.583 9.365 2.583 5.329 0 8.558-2.745 3.23-2.906 3.23-7.589 0-7.266-12.434-13.24-25.996-12.756-37.622-26.32-11.464-13.563-11.464-31.324 0-19.215 11.787-33.101 16.793-19.861 45.857-19.861z" style="font-style:normal;font-variant:normal;font-weight:400;font-stretch:normal;font-size:173.33332825px;line-height:1.25;font-family:'Cooper Black';-inkscape-font-specification:'Cooper Black, Normal';font-variant-ligatures:normal;font-variant-caps:normal;font-variant-numeric:normal;font-feature-settings:normal;text-align:start;letter-spacing:0;word-spacing:0;writing-mode:lr-tb;text-anchor:start;fill:url(#k);fill-opacity:1;stroke:none;stroke-width:1.90781558"/><path d="M822.443 665.357q8.074 0 26.32 3.552 3.714.646 6.136.646 2.745 0 10.657-2.906 3.713-1.454 6.297-1.454 7.427 0 15.016 9.527 6.136 7.59 10.011 16.631 3.876 9.043 3.876 15.663 0 6.459-4.521 10.818-4.522 4.198-11.303 4.198-5.652 0-10.173-2.745-4.36-2.744-14.209-12.11-10.334-10.01-17.116-10.01-4.52 0-7.912 3.39-3.229 3.23-3.229 7.75 0 7.913 15.178 14.856 27.288 12.271 41.82 26.804 12.272 12.271 12.272 30.033 0 22.444-19.7 37.46-16.953 13.08-41.497 13.08-6.297 0-22.928-2.1-15.663-1.776-17.6-1.776-2.1 0-4.844.485-4.683.645-6.782.645-7.589 0-11.949-3.875-6.62-5.974-12.271-18.73-5.652-12.918-5.652-22.121 0-14.855 11.626-14.855 4.521 0 8.235 3.067 3.875 2.907 15.985 15.824 6.62 7.105 10.98 9.85 4.36 2.583 9.365 2.583 5.329 0 8.558-2.745 3.23-2.906 3.23-7.589 0-7.266-12.433-13.24-25.997-12.756-37.623-26.32Q764.8 736.08 764.8 718.32q0-19.215 11.787-33.101 16.793-19.861 45.857-19.861z" style="font-style:normal;font-variant:normal;font-weight:400;font-stretch:normal;font-size:173.33332825px;line-height:1.25;font-family:'Cooper Black';-inkscape-font-specification:'Cooper Black, Normal';font-variant-ligatures:normal;font-variant-caps:normal;font-variant-numeric:normal;font-feature-settings:normal;text-align:start;letter-spacing:0;word-spacing:0;writing-mode:lr-tb;text-anchor:start;fill:url(#l);fill-opacity:1;stroke:none;stroke-width:1.90781558"/></g></g></svg>