<svg xmlns="http://www.w3.org/2000/svg" xmlns:xlink="http://www.w3.org/1999/xlink" height="200" width="200"><filter id="b"/><defs><linearGradient id="a"><stop offset="0" style="stop-color:#3ff;stop-opacity:1"/><stop offset="1" style="stop-color:#5ec2dc;stop-opacity:1"/></linearGradient><linearGradient y2="-811.513" x2="-2589.214" y1="-1822.343" x1="-2207.691" gradientTransform="matrix(.13863 0 0 .13863 441.703 228.514)" gradientUnits="userSpaceOnUse" id="c" xlink:href="#a"/></defs><path filter="url(#b)" style="font-style:normal;font-variant:normal;font-weight:400;font-stretch:normal;font-size:173.33332825px;line-height:1.25;font-family:'Cooper Black';-inkscape-font-specification:'Cooper Black, Normal';font-variant-ligatures:normal;font-variant-caps:normal;font-variant-numeric:normal;font-feature-settings:normal;text-align:start;letter-spacing:0;word-spacing:0;writing-mode:lr-tb;text-anchor:start;display:inline;fill:url(#c);fill-opacity:1;stroke:none;stroke-width:1.81912088" d="M130.36 67.303q-5.104-4.495-12.083-3.897-6.746.599-13.04 6.09-6.992 6.102-16.56 18.925-9.336 12.824-15.063 24.127-5.96 11.505 2.162 18.656 10.327 9.091 23.496-2.4 9.79-8.543 19.592-21.774 9.917-13.128 14.013-23.21 4.096-10.287-2.516-16.517zM83.575 26.414q25.505-7.8 48.788-.441 16.697 5.257 29.705 17.891 13.5 13.246 18.786 30.529 9.25 30.244-12.007 59.91-20.3 28.308-54.447 38.751-33.31 10.188-59.735-2.459-25.696-12.26-34.732-41.806-10.06-32.893 8.077-61.3 18.91-29.864 55.565-41.075z"/></svg>