<svg xmlns="http://www.w3.org/2000/svg" width="100" height="100">
    <filter id="a"/>
    <g filter="url(#a)">
        <path fill="#5ec3dc"
              d="M14.059 2.745q3.747 0 6.573 1.945 2.027 1.393 3.256 3.625 1.27 2.334 1.27 4.873 0 4.444-4.076 7.556-3.89 2.97-8.907 2.97-4.895 0-7.925-2.785Q1.3 18.226 1.3 13.884q0-4.832 3.604-7.904 3.768-3.235 9.154-3.235zm-1.639 4.73q-.9 0-1.454.676-.532.655-.532 1.76 0 1.23.45 3.36.471 2.108 1.106 3.747.635 1.679 2.069 1.679 1.822 0 1.822-2.314 0-1.72-.471-3.912-.45-2.19-1.106-3.563-.676-1.392-1.884-1.433z"/>
    </g>
</svg>